<mxfile host="app.diagrams.net" modified="2023-09-11T17:28:00.262Z" agent="Mozilla/5.0 (Windows NT 10.0; Win64; x64) AppleWebKit/537.36 (KHTML, like Gecko) Chrome/114.0.0.0 Safari/537.36 Edg/114.0.1823.86" version="21.7.4" etag="QYoEe4tc3CqSzqUeXhRA" type="github">
  <diagram name="Page-1" id="qe8x98Lb4BTr-0JQYsta">
    <mxGraphModel>
      <root>
        <mxCell id="0" />
        <mxCell id="1" parent="0" />
      </root>
    </mxGraphModel>
  </diagram>
</mxfile>
